<svg width="28" height="28" viewBox="0 0 28 28" fill="none" xmlns="http://www.w3.org/2000/svg">
<path d="M7.13812 12.616C7.78312 9.417 10.6141 7 14.0001 7H26.1061C23.6811 2.823 19.1691 0 14.0001 0C9.52212 0 5.53912 2.121 2.97412 5.403L7.13812 12.616Z" fill="#429B9C"/>
<path d="M14 19.25C16.8995 19.25 19.25 16.8995 19.25 14C19.25 11.1005 16.8995 8.75 14 8.75C11.1005 8.75 8.75 11.1005 8.75 14C8.75 16.8995 11.1005 19.25 14 19.25Z" fill="#429B9C"/>
<path d="M16.236 20.6271C15.533 20.8651 14.783 21.0001 14 21.0001C11.414 21.0001 9.157 19.5871 7.945 17.4961L7.937 17.5001L1.885 7.01709C0.693 9.07509 0 11.4561 0 14.0001C0 21.0611 5.261 26.9031 12.065 27.8501L16.236 20.6271Z" fill="#429B9C"/>
<path d="M18.615 8.75C20.074 10.034 21 11.909 21 14C21 15.274 20.653 16.466 20.055 17.496L20.063 17.5L14 28C21.719 28 28 21.719 28 14C28 12.143 27.629 10.373 26.969 8.75H18.615Z" fill="#429B9C"/>
</svg>
